# xmcd CD database file
#
# Track frame offsets:
#	150
#	22485
#	53422
#	60719
#	105526
#	132125
#	172406
#
# Disc length: 2802 seconds
#
# Revision: 0
# Processed by: cddbd v1.5.1PL0 Copyright (c) Steve Scherf et al.
# Submitted via: CDex 1.50
#
DISCID=610af007
DTITLE=Michel Prandi - L'électrip
DYEAR=2004
DGENRE=Jazz
TTITLE0=Le sable et l'écume
TTITLE1=New Rumba
TTITLE2=Esquisse(improvisation)
TTITLE3=Au sud de nulle part
TTITLE4=E 627
TTITLE5=La danse des mains
TTITLE6=Septembre
EXTD=YEAR: 2004
EXTT0=
EXTT1=
EXTT2=
EXTT3=
EXTT4=
EXTT5=
EXTT6=
PLAYORDER=
